<?xml version="1.0" encoding="utf-8"?>
<!-- Generator: Adobe Illustrator 18.1.0, SVG Export Plug-In . SVG Version: 6.00 Build 0)  -->
<svg version="1.1" id="Layer_1" xmlns="http://www.w3.org/2000/svg" xmlns:xlink="http://www.w3.org/1999/xlink" x="0px" y="0px"
	 viewBox="247.6 370.9 100 100" enable-background="new 247.6 370.9 100 100" xml:space="preserve">
<g id="sketch" display="none">
</g>
<g id="_x31__layer">
	<path fill="#EFEFF1" d="M315.5,396.8c10.2-13.6,0.7-31.8-25.4-3.4c-21.9,23.8-4.8,33,3.5,38.7c10.5,7.3,11.3,15.5,0.8,28.5
		c-9.7,12-37.7,18.2-16.7-8.9c15.8-20.4,36-18.5,39.4-18c0.4,0.1,2.2,1-4,1.7c-8.9,1-19.6,2.5-31.2,18.3c-8.9,12.1,2.4,11,9.8,4.1
		c7.3-6.9,11.5-17.5-2.1-24.2c-17.7-8.7-24.9-15.8-2.3-42.7c17.5-20.8,50.7-32.4,33.6,1.3c-1.1,2.2-2.7,4.2-4.7,5.7l0,0
		C315,398.7,314.2,398.5,315.5,396.8z"/>
</g>
<g id="guides">
</g>
</svg>
